<svg version="1.1" xmlns="http://www.w3.org/2000/svg" x="0" y="0" viewBox="0 0 600 600" xml:space="preserve"><style>.st1{fill:#fff}</style><circle cx="300" cy="301.2" r="300" fill="#dd1212"/><path class="st1" d="M300 29.2c-150 0-272 122-272 272s122 272 272 272 272-122 272-272-122-272-272-272zm0 516c-135 0-244-109-244-244s109-244 244-244 244 109 244 244-109 244-244 244z"/><path class="st1" d="M176 393.7h-36v-136c-13 13-28 22-46 28v-33c10-3 20-9 31-17 11-9 18-19 22-30h29v188zm168-83c-5-8-13-14-23-18 8-4 14-9 19-16 4-7 6-14 6-23 0-14-4-25-14-35-10-9-24-13-42-13s-31 4-41 13c-10 10-15 21-15 35 0 8 2 16 7 23 4 6 11 12 20 16-11 4-19 11-24 19-5 9-7 18-7 28 0 19 6 33 20 44 11 9 25 13 42 13 18 0 33-5 44-16s16-25 16-42c0-11-2-20-8-28zm-70-71c4-4 10-6 17-6 6 0 12 2 16 6s6 10 6 17-2 12-6 16-10 6-17 6c-6 0-12-2-16-6s-6-9-6-16 2-13 6-17zm36 120c-5 6-11 9-19 9-7 0-13-3-19-9-5-5-7-13-7-23 0-7 2-14 6-20 5-6 11-9 20-9 7 0 14 3 19 8 4 5 7 12 7 21 0 10-3 18-7 23zm114 7v-49h-49v-33h49v-49h33v49h49v33h-49v49z"/></svg>
