<svg width="22" height="22" viewBox="0 0 22 22" fill="none" xmlns="http://www.w3.org/2000/svg">
<path d="M4.17998 15.3425C2.95427 16.5315 4.56236 17.8044 2.09521 19.533C2.09521 19.533 3.54617 20.0201 4.86094 18.3649C5.31141 17.794 5.83521 17.5582 5.83521 17.5582C6.01331 17.663 5.87713 18.2444 5.24331 18.7211C5.24331 18.7211 6.23331 18.7473 6.85141 18.1292C7.4695 17.5111 7.88855 16.6206 7.88855 16.6206C8.31284 17.3644 7.2495 18.3073 7.2495 18.3073C7.2495 18.3073 8.24998 18.0454 9.43905 16.8563C10.3609 15.9344 11.0209 13.6349 9.69572 12.3149C8.37046 10.9949 6.00808 11.2306 4.85046 12.3934C4.34236 12.9015 3.82379 13.6925 3.75569 14.3421C3.75569 14.3421 4.72998 13.2892 5.07569 13.7344C5.07569 13.7344 3.42569 14.7297 3.15855 15.6778C3.16379 15.6778 3.98617 15.1854 4.17998 15.3425Z" fill="url(#paint0_linear_1175_170)"/>
<path d="M3.26877 16.2489C1.98543 16.7622 2.81306 17.8412 2.25781 18.3965C2.25781 18.3965 2.99639 17.9931 2.98591 17.2022C2.97543 16.5579 3.26877 16.2489 3.26877 16.2489Z" fill="url(#paint1_linear_1175_170)"/>
<path d="M3.56689 19.994C3.89689 19.9574 4.45213 18.9988 5.20642 19.1559C5.20642 19.1559 4.53071 20.1407 3.56689 19.994Z" fill="url(#paint2_linear_1175_170)"/>
<path opacity="0.5" d="M7.6265 18.0716C8.02983 17.9197 8.71602 17.5844 9.43888 16.8563C10.2508 16.0444 10.9265 13.7397 9.596 12.4144C8.29697 11.1154 6.01841 11.3773 4.92364 12.4721C4.53079 12.8649 4.11174 13.4569 3.94412 14.0016C4.17983 13.7921 4.53079 13.5302 4.82412 13.4988C4.97602 13.483 5.0965 13.5354 5.18031 13.6402L5.26412 13.7449L5.11745 13.834C5.10174 13.8444 3.82364 14.6249 3.38888 15.4211C3.68745 15.2692 4.09602 15.1016 4.26364 15.2378L4.35793 15.3163L4.24793 15.4263C3.79222 15.8716 3.76602 16.3273 3.74507 16.8563C3.70841 17.6159 3.6665 18.4697 2.37793 19.4597C2.81793 19.5173 3.81841 19.4911 4.7665 18.3021C5.23793 17.7049 5.78269 17.4535 5.80364 17.443L5.8665 17.4169L5.91364 17.443C6.00269 17.4954 6.0446 17.6107 6.02888 17.7625C6.00793 17.9721 5.87174 18.2707 5.57841 18.5744C5.90316 18.5325 6.41126 18.4121 6.77269 18.0507C7.3646 17.4588 7.77316 16.5997 7.77841 16.5892L7.89364 16.343L8.00364 16.5369C8.2865 17.0397 7.97221 17.6525 7.6265 18.0716Z" fill="url(#paint3_linear_1175_170)"/>
<path d="M2.25781 18.3965C2.61924 18.1031 2.99115 17.527 2.98591 17.2022C2.98067 16.9037 3.06448 16.4846 3.26877 16.2489C2.36781 16.6312 2.49352 17.2337 2.60877 17.5322C2.66115 17.6631 2.59305 18.0508 2.25781 18.3965Z" fill="url(#paint4_radial_1175_170)"/>
<path d="M2.9541 19.2817C4.66172 18.7213 5.11744 16.7832 6.2122 16.4479C7.3122 16.1127 7.03458 17.1604 6.61029 17.637C6.61029 17.637 8.06125 16.1808 8.06648 15.0442C8.07696 13.9075 9.60122 15.6832 9.12981 16.6051C9.12981 16.6051 11.4608 14.2742 9.59599 12.4146C7.73125 10.5551 5.25362 12.4094 5.25362 12.4094C5.25362 12.4094 6.66791 12.3517 6.5422 13.3784C6.5422 13.3784 5.45267 13.7923 4.59362 14.4784C4.59362 14.4784 5.01268 14.5256 5.30077 14.9551C5.30077 14.9551 4.01744 15.8404 4.06981 16.5998C4.14315 17.5794 3.5041 19.1037 2.9541 19.2817Z" fill="url(#paint5_linear_1175_170)"/>
<path d="M4.14893 17.8096C4.94512 17.6105 5.64702 15.7458 6.76798 15.8505C7.38607 15.9082 7.24465 16.4424 7.24465 16.4424C7.24465 16.4424 7.67417 15.8296 7.77369 15.0072C7.87321 14.1849 9.408 14.4624 9.33989 16.013C9.33989 16.013 11.0266 13.8182 8.97846 12.4196C6.72084 10.8796 5.0656 12.8124 5.0656 12.8124C5.0656 12.8124 6.61084 12.2991 6.85179 13.5249C6.85179 13.5249 5.57369 13.881 5.10227 14.3524C5.10227 14.3524 5.64702 14.431 5.77798 15.0124C5.77798 15.0124 4.52084 15.9343 4.5575 16.301C4.64655 17.1758 4.14893 17.8096 4.14893 17.8096Z" fill="url(#paint6_linear_1175_170)"/>
<path opacity="0.5" d="M4.17998 15.3425C2.95427 16.5315 4.56236 17.8044 2.09521 19.533C2.09521 19.533 3.54617 20.0201 4.86094 18.3649C5.31141 17.794 5.83521 17.5582 5.83521 17.5582C6.01331 17.663 5.87713 18.2444 5.24331 18.7211C5.24331 18.7211 6.23331 18.7473 6.85141 18.1292C7.4695 17.5111 7.88855 16.6206 7.88855 16.6206C8.31284 17.3644 7.2495 18.3073 7.2495 18.3073C7.2495 18.3073 8.24998 18.0454 9.43905 16.8563C10.3609 15.9344 11.0209 13.6349 9.69572 12.3149C8.37046 10.9949 6.00808 11.2306 4.85046 12.3934C4.34236 12.9015 3.82379 13.6925 3.75569 14.3421C3.75569 14.3421 4.72998 13.2892 5.07569 13.7344C5.07569 13.7344 3.42569 14.7297 3.15855 15.6778C3.16379 15.6778 3.98617 15.1854 4.17998 15.3425Z" fill="url(#paint7_radial_1175_170)"/>
<path opacity="0.5" d="M4.17998 15.3425C2.95427 16.5315 4.56236 17.8044 2.09521 19.533C2.09521 19.533 3.54617 20.0201 4.86094 18.3649C5.31141 17.794 5.83521 17.5582 5.83521 17.5582C6.01331 17.663 5.87713 18.2444 5.24331 18.7211C5.24331 18.7211 6.23331 18.7473 6.85141 18.1292C7.4695 17.5111 7.88855 16.6206 7.88855 16.6206C8.31284 17.3644 7.2495 18.3073 7.2495 18.3073C7.2495 18.3073 8.24998 18.0454 9.43905 16.8563C10.3609 15.9344 11.0209 13.6349 9.69572 12.3149C8.37046 10.9949 6.00808 11.2306 4.85046 12.3934C4.34236 12.9015 3.82379 13.6925 3.75569 14.3421C3.75569 14.3421 4.72998 13.2892 5.07569 13.7344C5.07569 13.7344 3.42569 14.7297 3.15855 15.6778C3.16379 15.6778 3.98617 15.1854 4.17998 15.3425Z" fill="url(#paint8_radial_1175_170)"/>
<path d="M8.82089 17.2493C10.0152 15.9764 10.6909 13.7031 9.44421 12.4564C8.19756 11.2097 5.90327 12.2574 4.88708 13.195C4.88708 13.195 5.69898 12.8545 6.33803 13.2631C6.97708 13.6716 5.14898 14.3788 4.7666 15.4997C4.7666 15.4997 6.39566 14.5202 6.90899 14.9341C7.42232 15.3479 6.90375 16.6522 6.41137 17.1445C6.41137 17.1445 7.57946 16.5474 8.20803 15.7774C9.1666 14.5988 8.82089 17.2493 8.82089 17.2493Z" fill="url(#paint9_radial_1175_170)"/>
<path opacity="0.5" d="M4.17998 15.3425C2.95427 16.5315 4.56236 17.8044 2.09521 19.533C2.09521 19.533 3.54617 20.0201 4.86094 18.3649C5.31141 17.794 5.83521 17.5582 5.83521 17.5582C6.01331 17.663 5.87713 18.2444 5.24331 18.7211C5.24331 18.7211 6.23331 18.7473 6.85141 18.1292C7.4695 17.5111 7.88855 16.6206 7.88855 16.6206C8.31284 17.3644 7.2495 18.3073 7.2495 18.3073C7.2495 18.3073 8.24998 18.0454 9.43905 16.8563C10.3609 15.9344 11.0209 13.6349 9.69572 12.3149C8.37046 10.9949 6.00808 11.2306 4.85046 12.3934C4.34236 12.9015 3.82379 13.6925 3.75569 14.3421C3.75569 14.3421 4.72998 13.2892 5.07569 13.7344C5.07569 13.7344 3.42569 14.7297 3.15855 15.6778C3.16379 15.6778 3.98617 15.1854 4.17998 15.3425Z" fill="url(#paint10_radial_1175_170)"/>
<path opacity="0.5" d="M3.26877 16.2489C1.98543 16.7622 2.81306 17.8412 2.25781 18.3965C2.25781 18.3965 2.99639 17.9931 2.98591 17.2022C2.97543 16.5579 3.26877 16.2489 3.26877 16.2489Z" fill="url(#paint11_radial_1175_170)"/>
<path d="M3.56689 19.9937C3.89689 19.957 4.3788 19.2813 5.20642 19.1556C5.20642 19.1556 4.53071 20.1404 3.56689 19.9937Z" fill="url(#paint12_radial_1175_170)"/>
<path opacity="0.5" d="M3.56689 19.994C3.89689 19.9574 4.45213 18.9988 5.20642 19.1559C5.20642 19.1559 4.53071 20.1407 3.56689 19.994Z" fill="url(#paint13_radial_1175_170)"/>
<path opacity="0.5" d="M4.17998 15.3425C2.95427 16.5315 4.56236 17.8044 2.09521 19.533C2.09521 19.533 3.54617 20.0201 4.86094 18.3649C5.31141 17.794 5.83521 17.5582 5.83521 17.5582C6.01331 17.663 5.87713 18.2444 5.24331 18.7211C5.24331 18.7211 6.23331 18.7473 6.85141 18.1292C7.4695 17.5111 7.88855 16.6206 7.88855 16.6206C8.31284 17.3644 7.2495 18.3073 7.2495 18.3073C7.2495 18.3073 8.24998 18.0454 9.43905 16.8563C10.3609 15.9344 11.0209 13.6349 9.69572 12.3149C8.37046 10.9949 6.00808 11.2306 4.85046 12.3934C4.34236 12.9015 3.82379 13.6925 3.75569 14.3421C3.75569 14.3421 4.72998 13.2892 5.07569 13.7344C5.07569 13.7344 3.42569 14.7297 3.15855 15.6778C3.16379 15.6778 3.98617 15.1854 4.17998 15.3425Z" fill="url(#paint14_radial_1175_170)"/>
<path opacity="0.25" d="M4.17998 15.3425C2.95427 16.5315 4.56236 17.8044 2.09521 19.533C2.09521 19.533 3.54617 20.0201 4.86094 18.3649C5.31141 17.794 5.83521 17.5582 5.83521 17.5582C6.01331 17.663 5.87713 18.2444 5.24331 18.7211C5.24331 18.7211 6.23331 18.7473 6.85141 18.1292C7.4695 17.5111 7.88855 16.6206 7.88855 16.6206C8.31284 17.3644 7.2495 18.3073 7.2495 18.3073C7.2495 18.3073 8.24998 18.0454 9.43905 16.8563C10.3609 15.9344 11.0209 13.6349 9.69572 12.3149C8.37046 10.9949 6.00808 11.2306 4.85046 12.3934C4.34236 12.9015 3.82379 13.6925 3.75569 14.3421C3.75569 14.3421 4.72998 13.2892 5.07569 13.7344C5.07569 13.7344 3.42569 14.7297 3.15855 15.6778C3.16379 15.6778 3.98617 15.1854 4.17998 15.3425Z" fill="url(#paint15_radial_1175_170)"/>
<path opacity="0.75" d="M4.17998 15.3425C2.95427 16.5315 4.56236 17.8044 2.09521 19.533C2.09521 19.533 3.54617 20.0201 4.86094 18.3649C5.31141 17.794 5.83521 17.5582 5.83521 17.5582C6.01331 17.663 5.87713 18.2444 5.24331 18.7211C5.24331 18.7211 6.23331 18.7473 6.85141 18.1292C7.4695 17.5111 7.88855 16.6206 7.88855 16.6206C8.31284 17.3644 7.2495 18.3073 7.2495 18.3073C7.2495 18.3073 8.24998 18.0454 9.43905 16.8563C10.3609 15.9344 11.0209 13.6349 9.69572 12.3149C8.37046 10.9949 6.00808 11.2306 4.85046 12.3934C4.34236 12.9015 3.82379 13.6925 3.75569 14.3421C3.75569 14.3421 4.72998 13.2892 5.07569 13.7344C5.07569 13.7344 3.42569 14.7297 3.15855 15.6778C3.16379 15.6778 3.98617 15.1854 4.17998 15.3425Z" fill="url(#paint16_radial_1175_170)"/>
<path d="M14.0746 14.1745C13.954 13.0065 14.2265 11.7651 14.8446 10.6441L15.0384 10.2878L12.0159 12.2626L11.7646 14.0803L10.5859 15.2117C10.8374 16.1965 10.8479 17.1603 10.8479 17.1603C12.854 15.9607 14.0746 14.1745 14.0746 14.1745Z" fill="url(#paint17_linear_1175_170)"/>
<path d="M10.8532 17.1653C10.8532 17.1653 10.848 16.191 10.5913 15.2168L11.089 14.7401C11.2409 15.0753 11.5394 15.8297 11.6128 16.6625C11.3718 16.8301 11.1203 17.0082 10.8532 17.1653Z" fill="url(#paint18_linear_1175_170)"/>
<path opacity="0.75" d="M14.0746 14.1745C13.954 13.0065 14.2265 11.7651 14.8446 10.6441L15.0384 10.2878L12.0159 12.2626L11.7646 14.0803L10.5859 15.2117C10.8374 16.1965 10.8479 17.1603 10.8479 17.1603C12.854 15.9607 14.0746 14.1745 14.0746 14.1745Z" fill="url(#paint19_radial_1175_170)"/>
<path d="M14.3682 11.728C14.4939 11.3614 14.6511 10.9947 14.8448 10.6437L14.9548 10.4447C14.9286 10.429 14.9025 10.4133 14.8763 10.3976L12.0215 12.2676L11.8486 13.4933C12.4982 13.2261 13.4201 12.6814 14.3682 11.728Z" fill="url(#paint20_linear_1175_170)"/>
<path d="M11.0891 7.17623C11.0577 7.1029 11.0419 7.05051 11.0158 6.98242C9.88955 7.5167 8.61669 7.66861 7.39098 7.43813C7.39098 7.43813 5.5786 8.62718 4.46289 10.7329C4.46289 10.7329 5.50003 10.8324 6.58956 11.2043L7.70527 10.0048L9.50721 9.9C9.91054 8.99385 10.3977 8.0248 11.0891 7.17623Z" fill="url(#paint21_linear_1175_170)"/>
<path d="M4.46289 10.7276C4.46289 10.7276 5.50003 10.8271 6.58956 11.199L7.06622 10.6857C6.68385 10.4867 5.85622 10.1042 4.93956 9.94189C4.77194 10.1881 4.60956 10.45 4.46289 10.7276Z" fill="url(#paint22_linear_1175_170)"/>
<path opacity="0.75" d="M11.0891 7.17623C11.0577 7.1029 11.0419 7.05051 11.0158 6.98242C9.88955 7.5167 8.61669 7.66861 7.39098 7.43813C7.39098 7.43813 5.5786 8.62718 4.46289 10.7329C4.46289 10.7329 5.50003 10.8324 6.58956 11.2043L7.70527 10.0048L9.50721 9.9C9.91054 8.99385 10.3977 8.0248 11.0891 7.17623Z" fill="url(#paint23_radial_1175_170)"/>
<path d="M11.0153 6.97705C10.5753 7.31228 9.19777 8.64276 8.71582 9.93657L9.50155 9.88946C9.90488 8.99372 10.5178 8.00372 11.2091 7.15514L11.0153 6.97705Z" fill="url(#paint24_linear_1175_170)"/>
<path d="M11.4922 6.72085C11.9584 7.48037 12.5765 8.23466 13.2626 8.90513C13.2941 8.93656 13.3307 8.96799 13.3622 8.99941C13.9436 9.55461 14.5722 10.047 15.2113 10.4399C15.2689 10.3823 15.3265 10.3299 15.3841 10.2723C17.0341 8.62228 17.9926 7.38085 18.8151 5.80418C18.2284 4.66751 17.2646 3.7037 16.128 3.11703C14.5513 3.93941 13.3151 4.89275 11.6598 6.54799C11.6022 6.60561 11.5446 6.66322 11.4922 6.72085Z" fill="url(#paint25_linear_1175_170)"/>
<path d="M18.8097 5.80394C19.9254 3.66156 19.784 2.50918 19.6007 2.32584C19.4173 2.14251 18.2701 2.00109 16.1226 3.1168C17.2592 3.70346 18.223 4.66728 18.8097 5.80394Z" fill="url(#paint26_linear_1175_170)"/>
<path d="M9.60133 12.3305C10.1933 12.9225 10.738 13.3572 10.8847 13.3572C12.2152 12.7759 13.8023 11.8015 15.2114 10.4396C14.5775 10.0468 13.9438 9.55442 13.3623 8.99916C13.3309 8.96772 13.2942 8.9363 13.2628 8.90487C12.5766 8.23439 11.9585 7.4801 11.4923 6.72058C10.1304 8.12964 9.15613 9.72721 8.57471 11.0578C8.59566 11.2201 9.01994 11.7544 9.60133 12.3305Z" fill="url(#paint27_linear_1175_170)"/>
<path opacity="0.75" d="M9.60133 12.3305C10.1933 12.9225 10.738 13.3572 10.8847 13.3572C12.2152 12.7759 13.8023 11.8015 15.2114 10.4396C14.5775 10.0468 13.9438 9.55442 13.3623 8.99916C13.3309 8.96772 13.2942 8.9363 13.2628 8.90487C12.5766 8.23439 11.9585 7.4801 11.4923 6.72058C10.1304 8.12964 9.15613 9.72721 8.57471 11.0578C8.59566 11.2201 9.01994 11.7544 9.60133 12.3305Z" fill="url(#paint28_radial_1175_170)"/>
<path opacity="0.5" d="M13.3624 8.99916C13.3309 8.96772 13.2942 8.9363 13.2628 8.90487C12.5767 8.23439 11.9586 7.4801 11.4924 6.72058C11.4557 6.75725 11.4242 6.79391 11.3928 6.83058C12.3461 8.63249 15.2586 10.3505 13.0376 11.2568C11.5815 11.8539 10.9267 12.5611 10.5757 13.1896C10.7224 13.2996 10.8376 13.3572 10.89 13.3572C12.2205 12.7759 13.8076 11.8015 15.2167 10.4396C14.5724 10.0468 13.9438 9.55442 13.3624 8.99916Z" fill="url(#paint29_radial_1175_170)"/>
<path d="M9.60164 12.3306C9.02547 11.7544 8.60119 11.2201 8.575 11.0577L7.75785 11.4192C7.66356 11.5134 8.19785 12.2101 8.96262 12.9696C9.72209 13.7292 10.4188 14.2686 10.5131 14.1744L10.885 13.3573C10.7383 13.3573 10.1935 12.9225 9.60164 12.3306Z" fill="url(#paint30_linear_1175_170)"/>
<path d="M9.60164 12.3306C9.02547 11.7544 8.60119 11.2201 8.575 11.0577L7.75785 11.4192C7.66356 11.5134 8.19785 12.2101 8.96262 12.9696C9.72209 13.7292 10.4188 14.2686 10.5131 14.1744L10.885 13.3573C10.7383 13.3573 10.1935 12.9225 9.60164 12.3306Z" fill="url(#paint31_linear_1175_170)"/>
<path d="M18.5848 6.22322C18.5952 6.20751 18.8048 5.81989 18.81 5.80418C18.2233 4.66751 17.2595 3.7037 16.1228 3.11703C16.1071 3.12751 16.0915 3.13275 16.0757 3.14322C17.1915 3.77704 18.4538 5.2018 18.5848 6.22322Z" fill="url(#paint32_linear_1175_170)"/>
<path opacity="0.75" d="M19.6012 2.32584C19.4179 2.14251 18.2708 2.00109 16.1231 3.1168C14.5465 3.93918 13.3103 4.89252 11.655 6.54775C11.5975 6.60537 11.545 6.66299 11.4875 6.72061C10.1256 8.12965 9.15126 9.7273 8.56982 11.0578C8.59601 11.2201 9.0203 11.7544 9.59646 12.3306C10.1884 12.9225 10.7331 13.3573 10.8798 13.3573C12.2103 12.7759 13.7975 11.8015 15.2065 10.4396C15.2641 10.3821 15.3218 10.3296 15.3793 10.2721C17.0293 8.62204 17.9879 7.38061 18.8103 5.80394C19.9312 3.66156 19.7898 2.50918 19.6012 2.32584Z" fill="url(#paint33_radial_1175_170)"/>
<path d="M8.33359 15.0024C10.0936 13.5828 11.4712 12.0009 11.5079 11.959L11.2355 11.6866C11.2355 11.6866 9.80024 13.2528 8.0874 14.7561L8.33359 15.0024Z" fill="url(#paint34_linear_1175_170)"/>
<path d="M11.23 11.6865C11.5496 11.0789 12.089 10.3141 12.7805 9.49179C12.7648 9.47602 12.749 9.46035 12.7281 9.44458C11.979 10.157 11.2352 10.8012 10.57 11.367L9.79479 12.5037L8.62666 13.6508C8.42237 14.1641 8.07666 14.756 8.07666 14.756C9.79479 13.2527 11.23 11.6865 11.23 11.6865Z" fill="url(#paint35_linear_1175_170)"/>
<path d="M8.68965 14.2112C8.68965 14.2112 9.09823 13.4726 9.06156 13.2317L8.63203 13.656C8.42775 14.1693 8.08203 14.7612 8.08203 14.7612C8.29156 14.5726 8.49061 14.3893 8.68965 14.2112Z" fill="url(#paint36_linear_1175_170)"/>
<path d="M11.5079 11.9592C11.7383 11.2573 12.2569 10.4716 12.9221 9.61774C12.875 9.57585 12.8331 9.53396 12.786 9.49207C12.0946 10.3144 11.555 11.0792 11.2355 11.6868C11.2355 11.6868 9.80024 13.253 8.0874 14.7563L8.33883 15.0025C10.1146 13.5673 11.5079 11.9592 11.5079 11.9592Z" fill="url(#paint37_linear_1175_170)"/>
<path d="M8.33359 15.0024C10.0936 13.5828 11.4712 12.0009 11.5079 11.959L11.2355 11.6866C11.2355 11.6866 9.80024 13.2528 8.0874 14.7561L8.33359 15.0024Z" fill="url(#paint38_linear_1175_170)"/>
<path opacity="0.75" d="M11.23 11.6865C11.5496 11.0789 12.089 10.3141 12.7805 9.49179C12.7648 9.47602 12.749 9.46035 12.7281 9.44458C11.979 10.157 11.2352 10.8012 10.57 11.367L9.79479 12.5037L8.62666 13.6508C8.42237 14.1641 8.07666 14.756 8.07666 14.756C9.79479 13.2527 11.23 11.6865 11.23 11.6865Z" fill="url(#paint39_radial_1175_170)"/>
<path opacity="0.75" d="M19.6012 2.32584C19.4179 2.14251 18.2708 2.00109 16.1231 3.1168C14.5465 3.93918 13.3103 4.89252 11.655 6.54775C11.5975 6.60537 11.545 6.66299 11.4875 6.72061C10.1256 8.12965 9.15126 9.7273 8.56982 11.0578C8.59601 11.2201 9.0203 11.7544 9.59646 12.3306C10.1884 12.9225 10.7331 13.3573 10.8798 13.3573C12.2103 12.7759 13.7975 11.8015 15.2065 10.4396C15.2641 10.3821 15.3218 10.3296 15.3793 10.2721C17.0293 8.62204 17.9879 7.38061 18.8103 5.80394C19.9312 3.66156 19.7898 2.50918 19.6012 2.32584Z" fill="url(#paint40_radial_1175_170)"/>
<g opacity="0.16">
<path opacity="0.16" d="M15.8555 9.80064C15.1641 9.39208 14.4464 8.83685 13.7655 8.16114C13.0898 7.48543 12.5345 6.7678 12.126 6.07114" stroke="black" stroke-width="0.458333" stroke-miterlimit="10" stroke-linecap="round" stroke-linejoin="round"/>
<path opacity="0.16" d="M17.9092 6.06619C18.0663 6.25999 18.2077 6.44857 18.344 6.63714" stroke="black" stroke-width="0.458333" stroke-miterlimit="10" stroke-linecap="round" stroke-linejoin="round"/>
<g opacity="0.16">
<path opacity="0.16" d="M17.0599 3.69846C16.9918 3.7456 16.9237 3.79798 16.8556 3.85036C15.4832 4.87702 14.3203 5.90893 12.6703 7.55893C12.6128 7.61656 12.5551 7.67417 12.5028 7.73179C12.4503 7.78941 12.3928 7.84179 12.3403 7.89941" stroke="black" stroke-width="0.458333" stroke-miterlimit="10" stroke-linecap="round" stroke-linejoin="round"/>
</g>
<path opacity="0.16" d="M15.1274 9.32424C16.5783 7.84709 17.5055 6.72614 18.3802 5.3747C18.4169 5.32233 18.4483 5.26995 18.4798 5.21756" stroke="black" stroke-width="0.458333" stroke-miterlimit="10" stroke-linecap="round" stroke-linejoin="round"/>
</g>
<path opacity="0.75" d="M10.5132 12.9852C11.718 12.2833 13.2108 11.2043 14.6094 9.83713L10.5132 12.9852Z" fill="url(#paint41_radial_1175_170)"/>
<path d="M15.9133 6.86205C15.2428 7.48014 14.2476 7.48538 13.6923 6.87251C13.1371 6.25966 13.2366 5.25918 13.9071 4.64109C14.5776 4.02299 15.5728 4.01776 16.1281 4.63061C16.6833 5.24347 16.5837 6.24395 15.9133 6.86205Z" fill="url(#paint42_linear_1175_170)"/>
<path d="M15.6249 6.51619C15.0749 7.02428 14.2577 7.02952 13.8021 6.52666C13.3463 6.0238 13.4249 5.20142 13.9801 4.69333C14.5302 4.18524 15.3473 4.17999 15.803 4.68286C16.2535 5.18571 16.1749 6.00809 15.6249 6.51619Z" fill="url(#paint43_linear_1175_170)"/>
<path d="M15.4944 6.38015C15.002 6.83587 14.2739 6.83587 13.8705 6.39062C13.4672 5.94015 13.5353 5.21205 14.0276 4.75634C14.5201 4.30063 15.2482 4.30063 15.6515 4.74587C16.0549 5.19111 15.9867 5.92443 15.4944 6.38015Z" fill="url(#paint44_radial_1175_170)"/>
<path opacity="0.5" d="M15.4944 6.38015C15.002 6.83587 14.2739 6.83587 13.8705 6.39062C13.4672 5.94015 13.5353 5.21205 14.0276 4.75634C14.5201 4.30063 15.2482 4.30063 15.6515 4.74587C16.0549 5.19111 15.9867 5.92443 15.4944 6.38015Z" fill="url(#paint45_radial_1175_170)"/>
<path opacity="0.5" d="M15.5573 5.08131C15.7406 5.2856 15.8402 5.54227 15.8611 5.80941C15.9763 5.4375 15.9135 5.03417 15.6516 4.74608C15.2483 4.2956 14.5202 4.30084 14.0277 4.75656C13.9806 4.8037 13.9335 4.85084 13.8916 4.90322C14.4521 4.56275 15.1435 4.6256 15.5573 5.08131Z" fill="black"/>
<path d="M15.6515 4.74608C15.2482 4.2956 14.5201 4.30084 14.0276 4.75656C13.5353 5.21227 13.4672 5.94036 13.8705 6.39084C13.9124 6.43798 13.9543 6.46941 13.9282 6.44846C13.5667 6.08703 13.6767 5.34322 14.143 4.87703C14.5201 4.49989 15.243 4.3637 15.6515 4.74608Z" fill="url(#paint46_linear_1175_170)"/>
<path opacity="0.5" d="M15.6514 4.74587C15.2428 4.35825 14.5147 4.49968 14.1428 4.87159C13.6976 5.31682 13.5771 6.01872 13.8809 6.39587C13.928 6.42205 13.949 6.4692 13.9228 6.44825C13.9071 6.43253 13.8914 6.41682 13.8809 6.39587C13.8757 6.39587 13.8705 6.39063 13.8652 6.39063C14.2685 6.84111 14.9966 6.83587 15.489 6.38015C15.9866 5.92444 16.0599 5.19634 15.6514 4.74587Z" fill="url(#paint47_radial_1175_170)"/>
<path d="M18.8202 5.7882C18.2336 4.65154 17.2802 3.69296 16.1436 3.10629" stroke="#008EE6" stroke-width="0.6875" stroke-miterlimit="10" stroke-linecap="round" stroke-linejoin="round"/>
<path d="M15.2113 10.4396C14.5774 10.0468 13.9436 9.55442 13.3622 8.99916C13.3307 8.96772 13.2941 8.9363 13.2626 8.90487C12.5765 8.23439 11.9584 7.4801 11.4922 6.72058" stroke="#008EE6" stroke-width="0.6875" stroke-miterlimit="10" stroke-linecap="round" stroke-linejoin="round"/>
<defs>
<linearGradient id="paint0_linear_1175_170" x1="9.40404" y1="11.6298" x2="1.06307" y2="22.6412" gradientUnits="userSpaceOnUse">
<stop stop-color="#FF0000"/>
<stop offset="0.2317" stop-color="#FF1500"/>
<stop offset="0.7367" stop-color="#FF3D00"/>
<stop offset="0.9987" stop-color="#FF4C00"/>
</linearGradient>
<linearGradient id="paint1_linear_1175_170" x1="7.80208" y1="10.5938" x2="-0.438353" y2="21.4725" gradientUnits="userSpaceOnUse">
<stop stop-color="#FF0000"/>
<stop offset="0.2317" stop-color="#FF1500"/>
<stop offset="0.7367" stop-color="#FF3D00"/>
<stop offset="0.9987" stop-color="#FF4C00"/>
</linearGradient>
<linearGradient id="paint2_linear_1175_170" x1="10.1548" y1="11.9626" x2="1.70185" y2="23.1217" gradientUnits="userSpaceOnUse">
<stop stop-color="#FF0000"/>
<stop offset="0.2317" stop-color="#FF1500"/>
<stop offset="0.7367" stop-color="#FF3D00"/>
<stop offset="0.9987" stop-color="#FF4C00"/>
</linearGradient>
<linearGradient id="paint3_linear_1175_170" x1="7.75127" y1="13.3561" x2="2.37974" y2="24.5162" gradientUnits="userSpaceOnUse">
<stop stop-color="#FF8000"/>
<stop offset="0.6388" stop-color="#FF5B00"/>
<stop offset="0.9987" stop-color="#FF4C00"/>
</linearGradient>
<radialGradient id="paint4_radial_1175_170" cx="0" cy="0" r="1" gradientUnits="userSpaceOnUse" gradientTransform="translate(0.0800945 19.1971) rotate(-135) scale(4.33222 5.50123)">
<stop offset="0.00134333" stop-color="#FFED1C" stop-opacity="0.6"/>
<stop offset="0.9477" stop-color="#FFED1C" stop-opacity="0.0264782"/>
<stop offset="0.9914" stop-color="#FFED1C" stop-opacity="0"/>
</radialGradient>
<linearGradient id="paint5_linear_1175_170" x1="3.39521" y1="20.004" x2="8.24247" y2="13.0534" gradientUnits="userSpaceOnUse">
<stop stop-color="#FF8000"/>
<stop offset="0.022669" stop-color="#FE7F02" stop-opacity="0.9773"/>
<stop offset="0.6663" stop-color="#ED582A" stop-opacity="0.3337"/>
<stop offset="1" stop-color="#E74939" stop-opacity="0"/>
</linearGradient>
<linearGradient id="paint6_linear_1175_170" x1="8.96479" y1="12.8148" x2="4.58135" y2="16.7422" gradientUnits="userSpaceOnUse">
<stop stop-color="#FFBC47"/>
<stop offset="0.1869" stop-color="#FFB137" stop-opacity="0.8131"/>
<stop offset="0.7223" stop-color="#FF940F" stop-opacity="0.2777"/>
<stop offset="1" stop-color="#FF8900" stop-opacity="0"/>
</linearGradient>
<radialGradient id="paint7_radial_1175_170" cx="0" cy="0" r="1" gradientUnits="userSpaceOnUse" gradientTransform="translate(7.85126 13.9783) rotate(-135) scale(3.35121 3.45428)">
<stop offset="0.00134333" stop-color="#FFBC47"/>
<stop offset="0.2941" stop-color="#FFBF4B" stop-opacity="0.7068"/>
<stop offset="0.5624" stop-color="#FEC656" stop-opacity="0.4382"/>
<stop offset="0.8201" stop-color="#FCD368" stop-opacity="0.1801"/>
<stop offset="1" stop-color="#FBE07A" stop-opacity="0"/>
</radialGradient>
<radialGradient id="paint8_radial_1175_170" cx="0" cy="0" r="1" gradientUnits="userSpaceOnUse" gradientTransform="translate(7.72757 14.102) rotate(-135) scale(3.24795 3.34783)">
<stop offset="0.00134333" stop-color="white"/>
<stop offset="1" stop-color="white" stop-opacity="0"/>
</radialGradient>
<radialGradient id="paint9_radial_1175_170" cx="0" cy="0" r="1" gradientUnits="userSpaceOnUse" gradientTransform="translate(9.29709 14.5466) rotate(-135) scale(3.98987 5.89971)">
<stop offset="0.00134333" stop-color="#FFED1C" stop-opacity="0.6"/>
<stop offset="0.9477" stop-color="#FFED1C" stop-opacity="0.0264782"/>
<stop offset="0.9914" stop-color="#FFED1C" stop-opacity="0"/>
</radialGradient>
<radialGradient id="paint10_radial_1175_170" cx="0" cy="0" r="1" gradientUnits="userSpaceOnUse" gradientTransform="translate(7.77684 14.0755) rotate(-42.7273) scale(1.601 1.02418)">
<stop offset="0.00134333" stop-color="white"/>
<stop offset="1" stop-color="white" stop-opacity="0"/>
</radialGradient>
<radialGradient id="paint11_radial_1175_170" cx="0" cy="0" r="1" gradientUnits="userSpaceOnUse" gradientTransform="translate(2.33069 18.5132) rotate(-135) scale(1.43133 1.81756)">
<stop offset="0.00134333" stop-color="#FFED1C"/>
<stop offset="0.1997" stop-color="#FFEE2B" stop-opacity="0.8013"/>
<stop offset="0.5839" stop-color="#FFF254" stop-opacity="0.4167"/>
<stop offset="1" stop-color="#FFF686" stop-opacity="0"/>
</radialGradient>
<radialGradient id="paint12_radial_1175_170" cx="0" cy="0" r="1" gradientUnits="userSpaceOnUse" gradientTransform="translate(4.63951 19.5469) rotate(162.598) scale(1.38424 0.280083)">
<stop offset="0.00134333" stop-color="#FFED1C" stop-opacity="0.6"/>
<stop offset="0.9477" stop-color="#FFED1C" stop-opacity="0.0264782"/>
<stop offset="0.9914" stop-color="#FFED1C" stop-opacity="0"/>
</radialGradient>
<radialGradient id="paint13_radial_1175_170" cx="0" cy="0" r="1" gradientUnits="userSpaceOnUse" gradientTransform="translate(3.65939 20.1961) rotate(-41.019) scale(1.32119 0.419768)">
<stop offset="0.00134333" stop-color="#FFED1C"/>
<stop offset="0.1997" stop-color="#FFEE2B" stop-opacity="0.8013"/>
<stop offset="0.5839" stop-color="#FFF254" stop-opacity="0.4167"/>
<stop offset="1" stop-color="#FFF686" stop-opacity="0"/>
</radialGradient>
<radialGradient id="paint14_radial_1175_170" cx="0" cy="0" r="1" gradientUnits="userSpaceOnUse" gradientTransform="translate(2.39045 18.9029) rotate(-135) scale(4.46617 5.67133)">
<stop offset="0.00134333" stop-color="#FF4C00"/>
<stop offset="0.135" stop-color="#FF5B0C" stop-opacity="0.8661"/>
<stop offset="0.3941" stop-color="#FF842C" stop-opacity="0.6067"/>
<stop offset="0.7491" stop-color="#FFC45F" stop-opacity="0.2512"/>
<stop offset="1" stop-color="#FFF686" stop-opacity="0"/>
</radialGradient>
<radialGradient id="paint15_radial_1175_170" cx="0" cy="0" r="1" gradientUnits="userSpaceOnUse" gradientTransform="translate(4.203 14.2176) rotate(-135) scale(2.37057 3.01025)">
<stop offset="0.00134333" stop-color="#FFED1C"/>
<stop offset="0.1997" stop-color="#FFEE2B" stop-opacity="0.8013"/>
<stop offset="0.5839" stop-color="#FFF254" stop-opacity="0.4167"/>
<stop offset="1" stop-color="#FFF686" stop-opacity="0"/>
</radialGradient>
<radialGradient id="paint16_radial_1175_170" cx="0" cy="0" r="1" gradientUnits="userSpaceOnUse" gradientTransform="translate(7.72525 14.3269) rotate(-135) scale(4.95716 6.2948)">
<stop offset="0.00134333" stop-color="#FFED1C"/>
<stop offset="0.1997" stop-color="#FFEE2B" stop-opacity="0.8013"/>
<stop offset="0.5839" stop-color="#FFF254" stop-opacity="0.4167"/>
<stop offset="1" stop-color="#FFF686" stop-opacity="0"/>
</radialGradient>
<linearGradient id="paint17_linear_1175_170" x1="8.98675" y1="17.6589" x2="14.3587" y2="11.8656" gradientUnits="userSpaceOnUse">
<stop stop-color="#BD2719"/>
<stop offset="0.2151" stop-color="#D41A10"/>
<stop offset="0.5049" stop-color="#EC0C07"/>
<stop offset="0.774" stop-color="#FA0302"/>
<stop offset="1" stop-color="#FF0000"/>
</linearGradient>
<linearGradient id="paint18_linear_1175_170" x1="12.1099" y1="14.9443" x2="10.4247" y2="16.5996" gradientUnits="userSpaceOnUse">
<stop stop-color="#FC8D41"/>
<stop offset="0.0900324" stop-color="#FC7837"/>
<stop offset="0.294" stop-color="#FD4D24"/>
<stop offset="0.4922" stop-color="#FE2C14"/>
<stop offset="0.6802" stop-color="#FF1409"/>
<stop offset="0.854" stop-color="#FF0502"/>
<stop offset="1" stop-color="#FF0000"/>
</linearGradient>
<radialGradient id="paint19_radial_1175_170" cx="0" cy="0" r="1" gradientUnits="userSpaceOnUse" gradientTransform="translate(8.21192 16.9273) rotate(45) scale(7.26772)">
<stop offset="0.00134333" stop-color="#FFED1C"/>
<stop offset="0.1997" stop-color="#FFEE2B" stop-opacity="0.8013"/>
<stop offset="0.5839" stop-color="#FFF254" stop-opacity="0.4167"/>
<stop offset="1" stop-color="#FFF686" stop-opacity="0"/>
</radialGradient>
<linearGradient id="paint20_linear_1175_170" x1="12.2359" y1="13.1085" x2="20.5621" y2="3.45806" gradientUnits="userSpaceOnUse">
<stop stop-color="#BD2719"/>
<stop offset="0.2151" stop-color="#D41A10"/>
<stop offset="0.5049" stop-color="#EC0C07"/>
<stop offset="0.774" stop-color="#FA0302"/>
<stop offset="1" stop-color="#FF0000"/>
</linearGradient>
<linearGradient id="paint21_linear_1175_170" x1="3.81887" y1="10.9338" x2="8.89188" y2="8.44413" gradientUnits="userSpaceOnUse">
<stop stop-color="#BD2719"/>
<stop offset="0.2151" stop-color="#D41A10"/>
<stop offset="0.5049" stop-color="#EC0C07"/>
<stop offset="0.774" stop-color="#FA0302"/>
<stop offset="1" stop-color="#FF0000"/>
</linearGradient>
<linearGradient id="paint22_linear_1175_170" x1="6.71485" y1="9.46394" x2="5.11981" y2="11.3599" gradientUnits="userSpaceOnUse">
<stop stop-color="#FC8D41"/>
<stop offset="0.0900324" stop-color="#FC7837"/>
<stop offset="0.294" stop-color="#FD4D24"/>
<stop offset="0.4922" stop-color="#FE2C14"/>
<stop offset="0.6802" stop-color="#FF1409"/>
<stop offset="0.854" stop-color="#FF0502"/>
<stop offset="1" stop-color="#FF0000"/>
</linearGradient>
<radialGradient id="paint23_radial_1175_170" cx="0" cy="0" r="1" gradientUnits="userSpaceOnUse" gradientTransform="translate(7.48988 14.0379) rotate(45) scale(7.81715)">
<stop offset="0.00134333" stop-color="#FFED1C"/>
<stop offset="0.1997" stop-color="#FFEE2B" stop-opacity="0.8013"/>
<stop offset="0.5839" stop-color="#FFF254" stop-opacity="0.4167"/>
<stop offset="1" stop-color="#FFF686" stop-opacity="0"/>
</radialGradient>
<linearGradient id="paint24_linear_1175_170" x1="10.8337" y1="8.41238" x2="2.65196" y2="8.79498" gradientUnits="userSpaceOnUse">
<stop stop-color="#BD2719"/>
<stop offset="0.2151" stop-color="#D41A10"/>
<stop offset="0.5049" stop-color="#EC0C07"/>
<stop offset="0.774" stop-color="#FA0302"/>
<stop offset="1" stop-color="#FF0000"/>
</linearGradient>
<linearGradient id="paint25_linear_1175_170" x1="13.7939" y1="4.90503" x2="17.0865" y2="8.1976" gradientUnits="userSpaceOnUse">
<stop stop-color="#BBCACC"/>
<stop offset="0.3717" stop-color="white"/>
<stop offset="1" stop-color="#99AFB3"/>
</linearGradient>
<linearGradient id="paint26_linear_1175_170" x1="19.375" y1="4.68199" x2="17.5825" y2="2.35575" gradientUnits="userSpaceOnUse">
<stop stop-color="#008EE6"/>
<stop offset="0.688" stop-color="#80DAFE"/>
<stop offset="0.7325" stop-color="#76D5FB"/>
<stop offset="0.8071" stop-color="#5CC8F3"/>
<stop offset="0.9026" stop-color="#32B2E6"/>
<stop offset="1" stop-color="#0099D6"/>
</linearGradient>
<linearGradient id="paint27_linear_1175_170" x1="13.0685" y1="12.0341" x2="9.32679" y2="8.31241" gradientUnits="userSpaceOnUse">
<stop stop-color="#008EE6"/>
<stop offset="0.688" stop-color="#80DAFE"/>
<stop offset="0.7325" stop-color="#76D5FB"/>
<stop offset="0.8071" stop-color="#5CC8F3"/>
<stop offset="0.9026" stop-color="#32B2E6"/>
<stop offset="1" stop-color="#0099D6"/>
</linearGradient>
<radialGradient id="paint28_radial_1175_170" cx="0" cy="0" r="1" gradientUnits="userSpaceOnUse" gradientTransform="translate(10.5284 13.2682) rotate(45) scale(3.56031 6.51641)">
<stop stop-opacity="0.75"/>
<stop offset="1" stop-opacity="0"/>
</radialGradient>
<radialGradient id="paint29_radial_1175_170" cx="0" cy="0" r="1" gradientUnits="userSpaceOnUse" gradientTransform="translate(14.6775 12.4295) rotate(45) scale(3.56031 6.51641)">
<stop stop-opacity="0.75"/>
<stop offset="1" stop-opacity="0"/>
</radialGradient>
<linearGradient id="paint30_linear_1175_170" x1="8.22344" y1="11.026" x2="10.5704" y2="14.1077" gradientUnits="userSpaceOnUse">
<stop/>
<stop offset="0.1962" stop-color="#4D4D4C"/>
<stop offset="0.7655"/>
</linearGradient>
<linearGradient id="paint31_linear_1175_170" x1="8.22344" y1="11.026" x2="10.5704" y2="14.1077" gradientUnits="userSpaceOnUse">
<stop stop-opacity="0"/>
<stop offset="0.1975" stop-color="#CFDCDE" stop-opacity="0.5"/>
<stop offset="0.7655" stop-opacity="0"/>
</linearGradient>
<linearGradient id="paint32_linear_1175_170" x1="13.1389" y1="3.70785" x2="18.5209" y2="4.93673" gradientUnits="userSpaceOnUse">
<stop stop-color="#BBCACC"/>
<stop offset="0.3717" stop-color="white"/>
<stop offset="1" stop-color="#99AFB3"/>
</linearGradient>
<radialGradient id="paint33_radial_1175_170" cx="0" cy="0" r="1" gradientUnits="userSpaceOnUse" gradientTransform="translate(14.7366 10.4507) rotate(44.2342) scale(2.29713 7.43883)">
<stop stop-color="#440063" stop-opacity="0.75"/>
<stop offset="1" stop-color="#420061" stop-opacity="0"/>
</radialGradient>
<linearGradient id="paint34_linear_1175_170" x1="7.93888" y1="14.5351" x2="14.1234" y2="10.5475" gradientUnits="userSpaceOnUse">
<stop stop-color="#BD2719"/>
<stop offset="0.2151" stop-color="#D41A10"/>
<stop offset="0.5049" stop-color="#EC0C07"/>
<stop offset="0.774" stop-color="#FA0302"/>
<stop offset="1" stop-color="#FF0000"/>
</linearGradient>
<linearGradient id="paint35_linear_1175_170" x1="6.93401" y1="14.7453" x2="10.1237" y2="12.3168" gradientUnits="userSpaceOnUse">
<stop stop-color="#BD2719"/>
<stop offset="0.2151" stop-color="#D41A10"/>
<stop offset="0.5049" stop-color="#EC0C07"/>
<stop offset="0.774" stop-color="#FA0302"/>
<stop offset="1" stop-color="#FF0000"/>
</linearGradient>
<linearGradient id="paint36_linear_1175_170" x1="9.96827" y1="12.7009" x2="8.14249" y2="14.4062" gradientUnits="userSpaceOnUse">
<stop stop-color="#FC8D41"/>
<stop offset="0.0900324" stop-color="#FC7837"/>
<stop offset="0.294" stop-color="#FD4D24"/>
<stop offset="0.4922" stop-color="#FE2C14"/>
<stop offset="0.6802" stop-color="#FF1409"/>
<stop offset="0.854" stop-color="#FF0502"/>
<stop offset="1" stop-color="#FF0000"/>
</linearGradient>
<linearGradient id="paint37_linear_1175_170" x1="9.9085" y1="13.883" x2="12.0722" y2="7.69115" gradientUnits="userSpaceOnUse">
<stop stop-color="#BD2719"/>
<stop offset="0.2151" stop-color="#D41A10"/>
<stop offset="0.5049" stop-color="#EC0C07"/>
<stop offset="0.774" stop-color="#FA0302"/>
<stop offset="1" stop-color="#FF0000"/>
</linearGradient>
<linearGradient id="paint38_linear_1175_170" x1="7.93888" y1="14.5351" x2="14.1234" y2="10.5475" gradientUnits="userSpaceOnUse">
<stop stop-color="#BD2719"/>
<stop offset="0.2151" stop-color="#D41A10"/>
<stop offset="0.5049" stop-color="#EC0C07"/>
<stop offset="0.774" stop-color="#FA0302"/>
<stop offset="1" stop-color="#FF0000"/>
</linearGradient>
<radialGradient id="paint39_radial_1175_170" cx="0" cy="0" r="1" gradientUnits="userSpaceOnUse" gradientTransform="translate(7.88518 13.9931) rotate(-39.0499) scale(5.4773 1.83677)">
<stop offset="0.00134333" stop-color="#FFED1C"/>
<stop offset="0.1997" stop-color="#FFEE2B" stop-opacity="0.8013"/>
<stop offset="0.5839" stop-color="#FFF254" stop-opacity="0.4167"/>
<stop offset="1" stop-color="#FFF686" stop-opacity="0"/>
</radialGradient>
<radialGradient id="paint40_radial_1175_170" cx="0" cy="0" r="1" gradientUnits="userSpaceOnUse" gradientTransform="translate(13.1476 6.70532) rotate(44.2342) scale(2.29713 7.43883)">
<stop stop-color="white" stop-opacity="0.5"/>
<stop offset="1" stop-color="white" stop-opacity="0"/>
</radialGradient>
<radialGradient id="paint41_radial_1175_170" cx="0" cy="0" r="1" gradientUnits="userSpaceOnUse" gradientTransform="translate(12.6387 11.961) rotate(43.8644) scale(0.557745 2.67807)">
<stop stop-color="#440063" stop-opacity="0.75"/>
<stop offset="1" stop-color="#420061" stop-opacity="0"/>
</radialGradient>
<linearGradient id="paint42_linear_1175_170" x1="14.0427" y1="7.61872" x2="15.7698" y2="3.89954" gradientUnits="userSpaceOnUse">
<stop stop-color="#BD2719"/>
<stop offset="0.2151" stop-color="#D41A10"/>
<stop offset="0.5049" stop-color="#EC0C07"/>
<stop offset="0.774" stop-color="#FA0302"/>
<stop offset="1" stop-color="#FF0000"/>
</linearGradient>
<linearGradient id="paint43_linear_1175_170" x1="15.2734" y1="4.03611" x2="14.3329" y2="7.15845" gradientUnits="userSpaceOnUse">
<stop stop-color="#FC8D41"/>
<stop offset="0.0900324" stop-color="#FC7837"/>
<stop offset="0.294" stop-color="#FD4D24"/>
<stop offset="0.4922" stop-color="#FE2C14"/>
<stop offset="0.6802" stop-color="#FF1409"/>
<stop offset="0.854" stop-color="#FF0502"/>
<stop offset="1" stop-color="#FF0000"/>
</linearGradient>
<radialGradient id="paint44_radial_1175_170" cx="0" cy="0" r="1" gradientUnits="userSpaceOnUse" gradientTransform="translate(14.3192 5.61671) rotate(44.996) scale(3.0375 3.03729)">
<stop stop-color="#512D00"/>
<stop offset="1"/>
</radialGradient>
<radialGradient id="paint45_radial_1175_170" cx="0" cy="0" r="1" gradientUnits="userSpaceOnUse" gradientTransform="translate(14.9106 5.01541) scale(2.66489)">
<stop offset="0.4873" stop-color="#F5CBC0" stop-opacity="0"/>
<stop offset="1" stop-color="#E67E62"/>
</radialGradient>
<linearGradient id="paint46_linear_1175_170" x1="14.6638" y1="4.64086" x2="14.7773" y2="2.62631" gradientUnits="userSpaceOnUse">
<stop stop-color="#BD2719"/>
<stop offset="0.0422031" stop-color="#B42717"/>
<stop offset="0.257" stop-color="#89250F"/>
<stop offset="0.4654" stop-color="#682408"/>
<stop offset="0.6634" stop-color="#502304"/>
<stop offset="0.8464" stop-color="#412201"/>
<stop offset="1" stop-color="#3C2200"/>
</linearGradient>
<radialGradient id="paint47_radial_1175_170" cx="0" cy="0" r="1" gradientUnits="userSpaceOnUse" gradientTransform="translate(11.1509 4.36282) scale(3.61367)">
<stop stop-color="white" stop-opacity="0.5"/>
<stop offset="1" stop-color="white" stop-opacity="0"/>
</radialGradient>
</defs>
</svg>
